
<svg width="56" height="60" viewBox="115 0 50 60" fill="none" xmlns="http://www.w3.org/2000/svg">
<mask id="mask0" mask-type="alpha" maskUnits="userSpaceOnUse" x="56" y="56" width="56" height="56">
<path d="M84 112C99.464 112 112 99.464 112 84C112 68.536 99.464 56 84 56C68.536 56 56 68.536 56 84C56 99.464 68.536 112 84 112Z" fill="white"/>
</mask>

<path fill-rule="evenodd" clip-rule="evenodd" d="M140 56C155.464 56 168 43.4639 168 28C168 12.5361 155.464 0 140 0C124.536 0 112 12.5361 112 28C112 43.4639 124.536 56 140 56Z" fill="#F6B554"/>
<mask id="mask1" mask-type="alpha" maskUnits="userSpaceOnUse" x="112" y="0" width="56" height="56">
<path fill-rule="evenodd" clip-rule="evenodd" d="M140 56C155.464 56 168 43.4639 168 28C168 12.5361 155.464 0 140 0C124.536 0 112 12.5361 112 28C112 43.4639 124.536 56 140 56Z" fill="white"/>
</mask>
<g mask="url(#mask1)">
<g clip-path="url(#clip0)">
<path d="M147 5C146.793 3.17581 143.585 2 140 2C136.415 2 133.063 3.17581 133 5" stroke="#404040" stroke-width="0.5"/>
<mask id="mask2" mask-type="alpha" maskUnits="userSpaceOnUse" x="120" y="4" width="41" height="52">
<path d="M120 56H160V4H120V56Z" fill="white"/>
</mask>
<g mask="url(#mask2)">
<path d="M120 56H160V4H120V56Z" fill="#C2977C"/>
<path fill-rule="evenodd" clip-rule="evenodd" d="M153.093 51.7262L144.438 46.5143L156.148 25.9508L164.803 31.1627L153.093 51.7262Z" fill="#EB8930"/>
<path fill-rule="evenodd" clip-rule="evenodd" d="M120 37.8988V60.0976H123.207L136.721 36.1544L125.003 29.0351L120 37.8988Z" fill="#5CB79F"/>
<path fill-rule="evenodd" clip-rule="evenodd" d="M140.58 53.2339L151.709 59.8773H159.262L160.73 57.3207L143.977 47.3201L140.58 53.2339Z" fill="#DF3378"/>
<path fill-rule="evenodd" clip-rule="evenodd" d="M146.569 40.7111L138.221 35.6996L141.021 30.7975L149.369 35.809L146.569 40.7111Z" fill="#B71277"/>
<path fill-rule="evenodd" clip-rule="evenodd" d="M154.085 52.2806L174.021 63.9529L215.823 58.9961L165.781 31.6787L154.085 52.2806Z" fill="#F75F75"/>
<path fill-rule="evenodd" clip-rule="evenodd" d="M120 24.7675L137.234 35.2035L141.008 28.5383L120 15.817V24.7675Z" fill="#DF3378"/>
<path fill-rule="evenodd" clip-rule="evenodd" d="M120 34.1224L120.683 34.5426L124.073 28.4576L120 25.9508V34.1224Z" fill="#F75F75"/>
<path fill-rule="evenodd" clip-rule="evenodd" d="M137.613 56.5728L129.218 51.5192L137.758 36.5253L146.153 41.579L137.613 56.5728Z" fill="#F5B554"/>
</g>
<path fill-rule="evenodd" clip-rule="evenodd" d="M152.966 16.8484C152.607 16.9101 152.169 17.0213 150.832 17.0213C149.372 17.0213 148.238 16.589 148.238 14.4903L148.238 11.8926C148.238 9.79371 149.373 9.36169 150.833 9.36169C152.169 9.36169 152.607 9.47276 152.967 9.53448C153.135 9.55921 153.192 9.62093 153.192 9.79371V10.5839C153.192 10.7197 153.09 10.8308 152.967 10.8308H150.676C150.024 10.8308 149.788 11.0778 149.788 11.8926V12.3862H152.832C152.956 12.3862 153.057 12.4974 153.057 12.6332V13.5221C153.057 13.6579 152.956 13.7689 152.832 13.7689H149.788L149.788 14.4903C149.788 15.3051 150.024 15.5521 150.675 15.5521H152.966C153.09 15.5521 153.191 15.6631 153.191 15.7989V16.589C153.191 16.7619 153.135 16.8236 152.966 16.8484Z" fill="#222222"/>
<path fill-rule="evenodd" clip-rule="evenodd" d="M139.473 10.0001L138.422 16.7858C138.401 16.9098 138.315 17.0213 138.207 17.0213H138.099C138.002 17.0213 137.949 16.9345 137.949 16.8355V16.7858L138.999 10.0001C139.021 9.8763 139.107 9.76483 139.214 9.76483H139.322C139.419 9.76483 139.473 9.85155 139.473 9.95065V10.0001Z" fill="#222222"/>
<path fill-rule="evenodd" clip-rule="evenodd" d="M136.805 9.9729L135.86 16.0299C135.756 16.8009 135.42 17.0213 134.819 17.0213H134.194C133.673 17.0213 133.396 16.752 133.234 16.0421L132.319 12.9974C132.296 12.8872 132.296 12.8627 132.25 12.8627C132.204 12.8627 132.192 12.8872 132.169 12.9974L131.255 16.0421C131.093 16.752 130.815 17.0213 130.295 17.0213H129.67C129.068 17.0213 128.733 16.8009 128.629 16.0299L127.66 9.9729V9.93623C127.66 9.82601 127.752 9.76483 127.856 9.76483H129.083C129.175 9.76483 129.268 9.85053 129.279 9.98516L129.994 15.3567C130.005 15.4668 130.005 15.5403 130.052 15.5403C130.098 15.5403 130.098 15.4668 130.121 15.3567L131.116 12.0549C131.186 11.7613 131.348 11.5043 131.845 11.5043H132.644C133.141 11.5043 133.303 11.7613 133.373 12.0549L134.368 15.3567C134.391 15.4668 134.391 15.5403 134.437 15.5403C134.483 15.5403 134.483 15.4668 134.495 15.3567L135.185 9.98516C135.197 9.85053 135.29 9.76483 135.382 9.76483H136.608C136.713 9.76483 136.805 9.82601 136.805 9.93623V9.9729Z" fill="#222222"/>
<path fill-rule="evenodd" clip-rule="evenodd" d="M146.555 9.76483H146.418C146.305 9.76483 146.226 9.8763 146.203 10.0003L145.175 16.4022C145.164 16.4517 145.107 16.5013 145.095 16.5013C145.094 16.5013 145.092 16.5003 145.091 16.5V16.4998C145.087 16.4996 145.085 16.4978 145.082 16.4972C145.049 16.4896 145.037 16.4577 145.028 16.4142L143.176 10.1488C143.108 9.93827 142.961 9.76483 142.666 9.76483C142.651 9.76483 142.636 9.76551 142.62 9.76676V9.76483C142.613 9.7654 142.606 9.76653 142.598 9.76733V9.76483C142.373 9.79094 142.114 9.95144 142.042 10.3675L140.997 16.7859V16.8355C140.997 16.9344 141.054 17.0212 141.156 17.0212H141.269C141.383 17.0212 141.473 16.9097 141.496 16.7859L142.541 10.3675C142.551 10.3146 142.577 10.2899 142.598 10.2836V10.2861C142.602 10.285 142.606 10.2832 142.609 10.2832C142.613 10.2832 142.616 10.2849 142.62 10.2853V10.2872C142.662 10.2925 142.701 10.3262 142.711 10.3719L144.563 16.6249C144.653 16.9338 144.8 17.0208 145.082 17.0212C145.083 17.0212 145.084 17.0213 145.084 17.0213C145.086 17.0213 145.089 17.0209 145.091 17.0209V17.0213C145.371 17.0178 145.618 16.7955 145.685 16.4022L146.713 10.0003V9.95065C146.713 9.85167 146.668 9.76483 146.555 9.76483Z" fill="#222222"/>
</g>
</g>
<path d="M120 9H160V4H120V9Z" fill="#C2977C"/>
<defs>
<clipPath id="clip0">
<rect width="47" height="66" fill="white" transform="translate(120 -1)"/>
</clipPath>
</defs>
</svg>
